<?xml version="1.0" standalone="no"?>
<!DOCTYPE svg PUBLIC "-//W3C//DTD SVG 20010904//EN"
 "http://www.w3.org/TR/2001/REC-SVG-20010904/DTD/svg10.dtd">
<svg version="1.0" xmlns="http://www.w3.org/2000/svg"
 width="256.000000pt" height="256.000000pt" viewBox="0 0 256.000000 256.000000"
 preserveAspectRatio="xMidYMid meet">
<metadata>
Created by potrace 1.11, written by Peter Selinger 2001-2013
</metadata>
<g transform="translate(0.000000,256.000000) scale(0.100000,-0.100000)"
fill="#000000" stroke="none">
<path d="M0 1280 l0 -1280 1280 0 1280 0 0 1280 0 1280 -1280 0 -1280 0 0
-1280z m689 76 c108 -282 147 -374 153 -360 5 11 71 181 147 379 l139 360 86
3 86 3 0 -471 0 -470 -60 0 -61 0 3 394 c2 217 2 394 1 393 -1 -1 -67 -173
-148 -382 -81 -209 -149 -386 -152 -393 -4 -9 -21 -12 -55 -10 l-50 3 -146
384 -147 385 -3 -387 -2 -387 -55 0 -55 0 0 470 0 471 87 -3 86 -3 146 -379z
m1230 374 c125 -16 212 -71 236 -148 11 -39 7 -138 -8 -174 -19 -44 -66 -86
-113 -103 l-38 -13 31 -6 c54 -12 120 -62 144 -108 17 -32 23 -60 23 -114 1
-88 -30 -153 -92 -201 -72 -54 -120 -63 -354 -63 l-208 0 0 463 c0 255 3 467
7 470 10 10 288 8 372 -3z"/>
<path d="M1660 1485 l0 -147 143 4 c158 4 195 16 222 68 19 37 19 113 0 149
-26 51 -74 65 -227 69 l-138 4 0 -147z"/>
<path d="M1660 1070 l0 -172 143 4 c123 3 148 7 185 27 80 41 107 164 54 239
-35 48 -89 64 -244 70 l-138 5 0 -173z"/>
</g>
</svg>
