<?xml version="1.0" standalone="no"?>
<!DOCTYPE svg PUBLIC "-//W3C//DTD SVG 1.1//EN" "http://www.w3.org/Graphics/SVG/1.1/DTD/svg11.dtd" >
<svg xmlns="http://www.w3.org/2000/svg" xmlns:xlink="http://www.w3.org/1999/xlink" version="1.1">
<metadata></metadata>
<defs>
<font id="soleilregular" horiz-adv-x="1126" >
<font-face units-per-em="2048" ascent="1542" descent="-506" />
<missing-glyph horiz-adv-x="512" />
<glyph unicode="&#xfb01;" horiz-adv-x="1220" d="M94 860v164h117v147q0 177 63 269q83 121 273 121q71 0 151 -27l-28 -162q-56 17 -101 17q-76 0 -118 -33q-54 -45 -54 -203v-129h277v-164h-277v-860h-186v860h-117zM862 0v1024h187v-1024h-187zM862 1225v209h187v-209h-187z" />
<glyph unicode="&#xfb02;" horiz-adv-x="1220" d="M94 860v164h117v147q0 177 63 269q83 121 273 121q71 0 151 -27l-28 -162q-56 17 -101 17q-76 0 -118 -33q-54 -45 -54 -203v-129h277v-164h-277v-860h-186v860h-117zM862 0v1536h187v-1536h-187z" />
<glyph unicode="&#xfb03;" horiz-adv-x="1910" d="M94 860v164h117v147q0 177 63 269q83 121 273 121q98 0 203 -45l-54 -156q-66 29 -127 29q-76 0 -118 -33q-54 -45 -54 -203v-129h236v-164h-236v-860h-186v860h-117zM784 860v164h117v147q0 175 64 269q83 121 272 121q73 0 152 -27l-29 -162q-56 17 -100 17 q-77 0 -119 -33q-54 -45 -54 -203v-129h277v-164h-277v-860h-186v860h-117zM1552 0v1024h187v-1024h-187zM1552 1225v209h187v-209h-187z" />
<glyph unicode="&#xfb04;" horiz-adv-x="1910" d="M94 860v164h117v147q0 177 63 269q83 121 273 121q98 0 203 -45l-54 -156q-66 29 -127 29q-76 0 -118 -33q-54 -45 -54 -203v-129h236v-164h-236v-860h-186v860h-117zM784 860v164h117v147q0 175 64 269q83 121 272 121q73 0 152 -27l-29 -162q-56 17 -100 17 q-77 0 -119 -33q-54 -45 -54 -203v-129h277v-164h-277v-860h-186v860h-117zM1552 0v1536h187v-1536h-187z" />
<glyph horiz-adv-x="0" />
<glyph horiz-adv-x="682" />
<glyph horiz-adv-x="0" />
<glyph horiz-adv-x="0" />
<glyph unicode="&#xd;" horiz-adv-x="1024" />
<glyph unicode=" "  horiz-adv-x="512" />
<glyph unicode="&#x09;" horiz-adv-x="512" />
<glyph unicode="&#xa0;" horiz-adv-x="512" />
<glyph unicode="!" horiz-adv-x="649" d="M215 1206v228h219v-228l-18 -776h-183zM217 0v238h215v-238h-215z" />
<glyph unicode="&#x22;" horiz-adv-x="976" d="M164 1434h203l-19 -543h-166zM610 1434h203l-18 -543h-166z" />
<glyph unicode="#" horiz-adv-x="1474" d="M133 387v152h275l49 282h-185v152h209l68 387h166l-68 -387h266l68 387h166l-68 -387h262v-152h-286l-49 -282h196v-152h-221l-66 -387h-165l65 387h-266l-66 -387h-166l66 387h-250zM573 539h267l49 282h-266z" />
<glyph unicode="$" d="M61 180l134 125q159 -164 350 -164q117 0 205 60q88 58 88 178q0 81 -62 143q-24 24 -74 47q-59 30 -79 37q-28 13 -97 37l-112 43q-43 16 -99 49q-82 49 -122 115.5t-46 177.5q0 149 103 244q101 98 264 110v195h131v-199q170 -17 336 -133l-117 -137q-121 109 -295 109 q-99 0 -168 -50.5t-69 -138.5q0 -62 55 -117q28 -24 66 -41l75 -34l90 -31l119 -43q44 -16 107 -53q66 -38 98 -76q38 -40 63 -101.5t25 -132.5q0 -173 -108.5 -282.5t-286.5 -134.5v-199h-131v192q-238 9 -443 205z" />
<glyph unicode="%" horiz-adv-x="1740" d="M119 1118q0 138 94 232q96 96 233 96q136 0 232 -96q94 -94 94 -232q0 -137 -94 -231t-232 -94q-139 0 -233 94t-94 231zM272 1120q0 -78 51 -130t126 -52q72 0 120.5 52t48.5 130q0 75 -48.5 127.5t-120.5 52.5q-75 0 -126 -51t-51 -129zM309 57l1018 1401l113 -82 l-1018 -1401zM969 313q0 138 94 232q96 96 233 96q136 0 232 -96q94 -94 94 -232q0 -137 -94 -231t-232 -94q-139 0 -233 94t-94 231zM1122 315q0 -78 50.5 -130t125.5 -52q72 0 121 52t49 130q0 75 -49 128t-121 53q-75 0 -125.5 -51.5t-50.5 -129.5z" />
<glyph unicode="&#x26;" horiz-adv-x="1392" d="M131 420q0 125 64.5 226.5t177.5 162.5q-137 146 -137 299q0 149 122 250q124 100 283 100q132 0 234.5 -70.5t134.5 -187.5l-172 -49q-38 135 -205 135q-92 0 -151.5 -52t-59.5 -136q0 -78 49 -142q54 -67 170 -168l-111 -131l-36 33q-82 -39 -129.5 -109t-47.5 -159 q0 -113 91 -195q92 -80 219 -80q194 0 303 152l-166 150l113 129l546 -486l-114 -129l-254 225q-157 -213 -451 -213q-186 0 -332 134q-141 135 -141 311z" />
<glyph unicode="'" horiz-adv-x="530" d="M164 1434h203l-19 -543h-166z" />
<glyph unicode="(" horiz-adv-x="706" d="M102 623q0 639 543 976l78 -133q-428 -279 -428 -843q0 -565 428 -844l-78 -133q-543 338 -543 977z" />
<glyph unicode=")" horiz-adv-x="706" d="M-16 -221q428 279 428 844q0 564 -428 843l77 133q543 -337 543 -976t-543 -977z" />
<glyph unicode="*" horiz-adv-x="1003" d="M143 1133l54 167l237 -98l-20 256h176l-19 -256l236 98l53 -167l-244 -60l172 -199l-143 -102l-143 232l-144 -232l-143 102l170 199z" />
<glyph unicode="+" d="M51 557v160h432v432h160v-432h432v-160h-432v-430h-160v430h-432z" />
<glyph unicode="," horiz-adv-x="512" d="M76 -274l104 512h209l-135 -512h-178z" />
<glyph unicode="-" horiz-adv-x="942" d="M205 487v168h532v-168h-532z" />
<glyph unicode="." horiz-adv-x="512" d="M147 0v238h215v-238h-215z" />
<glyph unicode="/" horiz-adv-x="743" d="M0 -53l598 1614l145 -56l-598 -1614z" />
<glyph unicode="0" d="M82 680q0 330 125 516q126 188 356 188q229 0 355 -188t126 -516q0 -330 -126 -518q-126 -187 -355 -187q-230 0 -356 187q-125 186 -125 518zM279 680q0 -264 73 -395q74 -133 211 -133t211 133t74 395t-74 395t-211 133t-211 -133q-73 -131 -73 -395z" />
<glyph unicode="1" horiz-adv-x="704" d="M113 1036v181q121 59 272 143h125v-1360h-193v1126q-20 -11 -204 -90z" />
<glyph unicode="2" horiz-adv-x="1042" d="M94 1040q12 152 137 246q125 98 277 98q166 0 289 -102q125 -101 125 -258q0 -167 -146 -375q-154 -218 -399 -477h606v-172h-864v174q346 362 479 561q125 180 125 289q0 83 -66 135.5t-157 52.5q-88 0 -151 -60t-64 -151z" />
<glyph unicode="3" horiz-adv-x="1062" d="M72 203l151 84q84 -140 266 -140q120 0 196.5 61.5t76.5 170.5q0 102 -84 168q-83 65 -205 65q-98 0 -158 -14v197q121 3 195 20q83 24 132.5 78t49.5 125q0 85 -63.5 139.5t-163.5 54.5q-78 0 -138 -39t-85 -108l-164 68q42 114 147 182.5t244 68.5q191 0 303 -100 q117 -99 117 -264q0 -92 -46 -170t-124 -119q107 -37 173 -128.5t66 -207.5q0 -194 -131 -307t-323 -113q-138 0 -255.5 60t-176.5 168z" />
<glyph unicode="4" horiz-adv-x="1101" d="M53 342v207l604 811h199v-846h203v-172h-203v-342h-188v342h-615zM258 514h410v576z" />
<glyph unicode="5" horiz-adv-x="1021" d="M76 203l153 86q77 -142 254 -142q127 0 204 78t77 197q0 112 -77.5 182t-197.5 70q-127 0 -210 -86l-140 76q25 261 47 696h701v-172h-518q-14 -273 -25 -381q79 39 201 39q169 0 293 -121q123 -120 123 -297q0 -194 -130 -324q-126 -129 -323 -129q-127 0 -254 62 q-123 64 -178 166z" />
<glyph unicode="6" horiz-adv-x="1093" d="M82 518q0 311 188 555q191 244 482 363l77 -172q-216 -98 -345.5 -224t-178.5 -305q125 125 307 125q175 0 287 -127q113 -125 113 -311q0 -191 -123 -320q-124 -127 -309 -127q-224 0 -363 160q-135 159 -135 383zM276 516q0 -155 70 -262t217 -107q114 0 183 79t69 200 q0 118 -66 190t-178 72q-93 0 -172.5 -46.5t-122.5 -125.5z" />
<glyph unicode="7" horiz-adv-x="925" d="M20 1184v176h865v-141q-299 -622 -566 -1264l-178 80q43 101 178 403q67 150 222 471l131 275h-652z" />
<glyph unicode="8" horiz-adv-x="1150" d="M115 375q0 228 211 342q-170 102 -170 295q0 157 116 264q117 108 303 108q187 0 304 -108q116 -107 116 -264q0 -193 -170 -295q211 -114 211 -342q0 -171 -129 -285q-130 -115 -332 -115q-201 0 -331 115q-129 114 -129 285zM311 383q0 -102 76.5 -169t187.5 -67 t188 67t77 169q0 96 -78 168q-76 70 -187 70q-110 0 -186 -70q-78 -72 -78 -168zM348 1004q0 -88 66.5 -149.5t160.5 -61.5t161 61.5t67 149.5q0 90 -65.5 149t-162.5 59t-162 -59t-65 -149z" />
<glyph unicode="9" horiz-adv-x="1093" d="M82 938q0 191 123 317q123 129 309 129q225 0 360 -159q138 -159 138 -383q0 -311 -191 -555q-188 -244 -479 -363l-78 172q216 98 345.5 224t178.5 305q-125 -125 -307 -125q-173 0 -288 127q-111 126 -111 311zM279 934q0 -118 65.5 -190t177.5 -72q93 0 172.5 46.5 t122.5 125.5q0 152 -72 262q-69 106 -215 106q-114 0 -182.5 -78.5t-68.5 -199.5z" />
<glyph unicode=":" horiz-adv-x="512" d="M147 0v238h215v-238h-215zM147 786v238h215v-238h-215z" />
<glyph unicode=";" horiz-adv-x="512" d="M76 -274l104 512h209l-135 -512h-178zM178 786v238h215v-238h-215z" />
<glyph unicode="&#x3c;" d="M49 557v160l1026 409v-159l-827 -330l827 -330v-160z" />
<glyph unicode="=" d="M111 397v160h903v-160h-903zM111 717v160h903v-160h-903z" />
<glyph unicode="&#x3e;" d="M51 147v160l828 330l-828 330v159l1026 -409v-160z" />
<glyph unicode="?" horiz-adv-x="1107" d="M152 1044v9q0 178 118 290q121 115 287 115q170 0 285 -115q116 -113 116 -256q0 -171 -84 -264q-81 -90 -231 -159v-234h-199v340q81 27 127.5 48.5t94.5 55.5q106 72 106 207q0 87 -62 148t-153 61q-100 0 -159.5 -62t-59.5 -167v-17h-186zM436 0v238h215v-238h-215z " />
<glyph unicode="@" horiz-adv-x="1638" d="M113 420q0 295 202 500q203 206 494 206q320 0 518 -186q201 -189 201 -479q0 -182 -80 -309q-79 -125 -234 -125q-146 0 -198 166q-35 -65 -99 -100.5t-139 -35.5q-145 0 -239 101q-95 103 -95 252q0 140 93 247q91 107 245 107q117 0 211 -88v65h146v-315q0 -81 7 -134 t20.5 -79t28.5 -35.5t36 -9.5q65 0 101 83t36 212q0 229 -151 368q-152 140 -406 140q-226 0 -383 -160q-156 -156 -156 -389q0 -232 156 -391q157 -160 383 -160q131 0 256 61l51 -143q-145 -74 -309 -74q-290 0 -494 207q-202 205 -202 498zM594 408q0 -90 55.5 -152.5 t145.5 -62.5q56 0 112.5 46t85.5 119v148q-38 55 -91 88t-103 33q-99 0 -152 -61.5t-53 -157.5z" />
<glyph unicode="A" horiz-adv-x="1337" d="M31 0l555 1434h172l549 -1434h-228l-112 305h-611l-110 -305h-215zM422 481h481l-239 654h-2z" />
<glyph unicode="B" horiz-adv-x="1251" d="M195 0v1434h342q239 0 381 -91q151 -100 151 -296q0 -211 -219 -297q278 -82 278 -342q0 -120 -61.5 -211.5t-171.5 -139.5q-134 -57 -377 -57h-323zM391 172h109q210 0 303 43q117 55 117 191q0 111 -79 176t-220 65h-230v-475zM391 819h137q344 0 344 217 q0 120 -81 172q-85 54 -302 54h-98v-443z" />
<glyph unicode="C" horiz-adv-x="1380" d="M123 717q0 318 223 528q227 213 547 213q208 0 385 -110l-92 -152q-139 86 -293 86q-244 0 -404 -160q-157 -160 -157 -405q0 -260 155 -412q156 -153 406 -153q170 0 317 100l105 -146q-192 -131 -422 -131q-329 0 -549 205q-221 206 -221 537z" />
<glyph unicode="D" horiz-adv-x="1474" d="M195 0v1434h387q114 0 220.5 -23.5t207.5 -78t176 -135t120.5 -202.5t45.5 -272q0 -188 -66.5 -333t-185.5 -228q-229 -162 -539 -162h-366zM391 176h68q340 0 512 126t172 403q0 267 -156 409.5t-442 142.5h-154v-1081z" />
<glyph unicode="E" horiz-adv-x="1187" d="M195 0v1434h860v-177h-664v-430h664v-176h-664v-475h664v-176h-860z" />
<glyph unicode="F" horiz-adv-x="1013" d="M195 0v1434h727v-177h-531v-469h531v-176h-531v-612h-196z" />
<glyph unicode="G" horiz-adv-x="1644" d="M123 717q0 318 223 528q227 213 547 213q160 0 305 -67t250 -187l-139 -114q-79 89 -189 140.5t-227 51.5q-244 0 -404 -160q-157 -160 -157 -405q0 -260 155 -412q156 -153 406 -153q236 0 391 149v317h-364v177h561v-545q-103 -131 -257 -203t-331 -72q-336 0 -553 205 t-217 537z" />
<glyph unicode="H" horiz-adv-x="1540" d="M195 0v1434h196v-607h758v607h197v-1434h-197v651h-758v-651h-196z" />
<glyph unicode="I" horiz-adv-x="585" d="M195 0v1434h196v-1434h-196z" />
<glyph unicode="J" horiz-adv-x="698" d="M-33 20l53 160q64 -28 125 -28q104 0 138 49q34 46 34 188v1045h197v-1072q0 -177 -65 -272q-80 -115 -275 -115q-102 0 -207 45z" />
<glyph unicode="K" horiz-adv-x="1271" d="M195 0v1434h196v-732l602 732h240l-477 -566l506 -868h-230l-409 709l-232 -277v-432h-196z" />
<glyph unicode="L" horiz-adv-x="1024" d="M195 0v1434h196v-1258h623v-176h-819z" />
<glyph unicode="M" horiz-adv-x="1890" d="M195 0v1434h311l436 -1121l442 1121h312v-1434h-197v1210l-489 -1210h-138l-481 1210v-1210h-196z" />
<glyph unicode="N" horiz-adv-x="1546" d="M195 0v1434h172l788 -1069v1069h197v-1434h-174l-787 1069v-1069h-196z" />
<glyph unicode="O" horiz-adv-x="1720" d="M123 717q0 308 213 524q211 217 524 217t524 -217q213 -216 213 -524t-213 -527q-212 -215 -524 -215t-524 215q-213 219 -213 527zM332 717q0 -242 149 -404q148 -161 379 -161q229 0 377 161q152 166 152 404q0 235 -152 401q-150 164 -377 164q-229 0 -379 -164 q-149 -162 -149 -401z" />
<glyph unicode="P" horiz-adv-x="1189" d="M195 0v1434h428q73 0 142.5 -14t136 -47t116 -81t80 -121.5t30.5 -164.5q0 -114 -45.5 -200.5t-120.5 -135.5t-161 -73t-178 -24h-232v-573h-196zM391 750h180q349 0 349 249q0 118 -84 188t-224 70h-221v-507z" />
<glyph unicode="Q" horiz-adv-x="1720" d="M123 717q0 308 213 524q211 217 524 217t524 -217q213 -216 213 -524q0 -318 -219 -531l195 -192l-125 -125l-211 207q-171 -101 -377 -101q-312 0 -524 215q-213 219 -213 527zM332 717q0 -242 149 -404q148 -161 379 -161q135 0 244 59l-201 201l125 125l215 -215 q146 158 146 395q0 235 -152 401q-150 164 -377 164q-229 0 -379 -164q-149 -162 -149 -401z" />
<glyph unicode="R" horiz-adv-x="1255" d="M195 0v1434h426q121 0 225 -39q109 -41 184 -138q80 -95 80 -235q0 -163 -97 -267.5t-253 -136.5l454 -618h-245l-430 606h-148v-606h-196zM391 782h178q156 0 244 59.5t88 174.5q0 109 -80 175t-211 66h-219v-475z" />
<glyph unicode="S" horiz-adv-x="1247" d="M92 190l139 132q96 -95 182.5 -132.5t198.5 -37.5q129 0 211 64t82 183q0 114 -100 174q-50 30 -89.5 47t-129.5 50q-91 33 -152 62t-121 71q-131 98 -131 260q0 191 123 293t309 102q252 0 445 -147l-121 -144q-55 50 -138 82.5t-163 32.5q-118 0 -187 -53t-69 -146 q0 -61 57 -118q26 -22 70 -41l78 -35l94 -33q93 -34 156 -63q69 -30 133 -78q145 -101 145 -293q0 -93 -31.5 -170t-82 -127t-117.5 -85t-135.5 -50t-137.5 -15q-300 0 -518 215z" />
<glyph unicode="T" horiz-adv-x="999" d="M41 1257v177h917v-177h-360v-1257h-197v1257h-360z" />
<glyph unicode="U" horiz-adv-x="1478" d="M184 674v760h197v-811q0 -231 93 -351t265 -120t265.5 120t93.5 351v811h196v-760q0 -350 -136.5 -524.5t-422.5 -174.5q-551 0 -551 699z" />
<glyph unicode="V" horiz-adv-x="1296" d="M10 1434h228l415 -1135h2l416 1135h215l-555 -1434h-172z" />
<glyph unicode="W" horiz-adv-x="1814" d="M10 1434h217l287 -1082h4l301 1082h185l286 -1082h4l301 1082h209l-409 -1434h-197l-287 1092h-4l-311 -1092h-193z" />
<glyph unicode="X" horiz-adv-x="1333" d="M10 0l527 729l-510 705h252l397 -551l395 551h244l-520 -709l528 -725h-248l-416 567l-401 -567h-248z" />
<glyph unicode="Y" horiz-adv-x="1136" d="M10 1434h244l319 -603h7l317 603h229l-462 -822v-612h-197v623z" />
<glyph unicode="Z" horiz-adv-x="1120" d="M82 0v104l678 1153h-662v177h930v-107l-674 -1151h725v-176h-997z" />
<glyph unicode="[" horiz-adv-x="636" d="M184 -348v1884h432v-158h-264v-1568h264v-158h-432z" />
<glyph unicode="\" horiz-adv-x="743" d="M0 1505l145 56l598 -1614l-145 -56z" />
<glyph unicode="]" horiz-adv-x="636" d="M20 -190h265v1568h-265v158h433v-1884h-433v158z" />
<glyph unicode="^" d="M156 717l309 678h197l309 -678h-160l-248 520l-248 -520h-159z" />
<glyph unicode="_" d="M0 -352h1126v-129h-1126v129z" />
<glyph unicode="`" horiz-adv-x="737" d="M117 1487l135 104l252 -346l-113 -86z" />
<glyph unicode="a" horiz-adv-x="1118" d="M111 287q0 124 69 202q66 76 161 107t226 31q87 0 205 -23v37q0 246 -242 246q-159 0 -325 -90l-55 155q205 97 403 97q211 0 308 -107t97 -319v-623h-178v109q-122 -134 -307 -134q-160 0 -261 81t-101 231zM293 301q0 -85 54.5 -127.5t148.5 -42.5q132 0 276 123v211 q-90 20 -184 20q-295 0 -295 -184z" />
<glyph unicode="b" horiz-adv-x="1282" d="M172 0v1536h186v-649q53 77 140.5 119.5t185.5 42.5q221 0 365 -156q147 -156 147 -383q0 -210 -145 -375q-145 -160 -371 -160q-189 0 -322 136v-111h-186zM358 303q50 -72 132 -114t165 -42q167 0 258 111q93 113 93 256q0 145 -97 256q-94 107 -250 107 q-94 0 -179.5 -53.5t-121.5 -141.5v-379z" />
<glyph unicode="c" horiz-adv-x="972" d="M86 512q0 225 156 381t379 156q157 0 288 -88l-88 -154q-91 70 -209 70q-139 0 -237 -107q-99 -108 -99 -258q0 -162 99 -264q101 -101 239 -101q120 0 217 72l93 -143q-122 -101 -314 -101q-224 0 -374 150t-150 387z" />
<glyph unicode="d" horiz-adv-x="1282" d="M86 512q0 213 143 375t373 162q190 0 322 -138v625h186v-1536h-186v137q-53 -77 -140.5 -119.5t-185.5 -42.5q-220 0 -367 156q-145 157 -145 381zM276 508q0 -143 97 -254q94 -107 250 -107q90 0 177 53.5t124 139.5v381q-50 72 -132 114t-165 42q-169 0 -260 -111 q-91 -114 -91 -258z" />
<glyph unicode="e" horiz-adv-x="1146" d="M86 512q0 227 145 381q147 156 363 156q201 0 334 -136t133 -342q0 -59 -8 -106h-781q9 -140 99 -236q88 -94 231 -94q217 0 305 166l135 -86q-150 -240 -448 -240q-236 0 -373 152q-135 150 -135 385zM287 614h581q-6 112 -84 193q-76 82 -188 82q-116 0 -197.5 -75 t-111.5 -200z" />
<glyph unicode="f" horiz-adv-x="690" d="M94 860v164h117v147q0 177 63 269q83 121 273 121q98 0 203 -45l-54 -156q-66 29 -127 29q-76 0 -118 -33q-54 -45 -54 -203v-129h277v-164h-277v-860h-186v860h-117z" />
<glyph unicode="g" horiz-adv-x="1269" d="M86 524q0 212 143 367q146 158 373 158q190 0 322 -138v113h186v-967q0 -162 -53 -268q-127 -244 -463 -244q-267 0 -453 136l72 159q74 -54 179 -88.5t198 -34.5q152 0 243 77t91 226v142q-53 -77 -141 -119.5t-187 -42.5q-216 0 -365 152q-145 151 -145 372zM276 520 q0 -141 97 -246q95 -102 248 -102q91 0 178.5 52.5t124.5 137.5v359q-50 72 -132 114t-165 42q-169 0 -260 -107q-91 -111 -91 -250z" />
<glyph unicode="h" horiz-adv-x="1241" d="M172 0v1536h186v-680q120 193 334 193q202 0 297 -129q92 -127 92 -388v-532h-186v512q0 203 -53 283q-55 82 -178 82q-85 0 -166.5 -53.5t-139.5 -143.5v-680h-186z" />
<glyph unicode="i" horiz-adv-x="530" d="M172 0v1024h186v-1024h-186zM172 1225v209h186v-209h-186z" />
<glyph unicode="j" horiz-adv-x="546" d="M-123 -410l53 152q56 -29 115 -29q86 0 114.5 53.5t28.5 180.5v1077h187v-1114q0 -116 -29 -195q-65 -170 -272 -170q-117 0 -197 45zM188 1225v209h187v-209h-187z" />
<glyph unicode="k" horiz-adv-x="1052" d="M172 0v1536h186v-1024l4 -2l414 514h230l-359 -418l393 -606h-227l-293 459l-162 -189v-270h-186z" />
<glyph unicode="l" horiz-adv-x="530" d="M172 0v1536h186v-1536h-186z" />
<glyph unicode="m" horiz-adv-x="1882" d="M172 0v1024h186v-156q57 82 145.5 131.5t176.5 49.5q193 0 285 -142q13 -22 24 -47q133 189 357 189q190 0 282 -121q94 -122 94 -396v-532h-186v512q0 207 -49 283q-55 82 -176 82q-71 0 -148 -47t-135 -123q12 -76 12 -175v-532h-186v512q0 217 -55 293q-54 72 -158 72 q-71 0 -148 -53.5t-135 -135.5v-688h-186z" />
<glyph unicode="n" horiz-adv-x="1241" d="M172 0v1024h186v-168q120 193 334 193q202 0 297 -129q92 -127 92 -388v-532h-186v512q0 203 -53 283q-55 82 -178 82q-85 0 -166.5 -53.5t-139.5 -143.5v-680h-186z" />
<glyph unicode="o" horiz-adv-x="1216" d="M86 512q0 225 150 381t372 156q223 0 373 -156q149 -155 149 -381t-149 -381q-150 -156 -373 -156q-222 0 -372 156t-150 381zM276 512q0 -149 95 -258q94 -107 237 -107q144 0 238 107t94 258t-94 258t-238 107q-143 0 -237 -107q-95 -109 -95 -258z" />
<glyph unicode="p" horiz-adv-x="1282" d="M172 -512v1536h186v-137q53 77 140.5 119.5t185.5 42.5q221 0 365 -156q147 -156 147 -383q0 -210 -145 -375q-145 -160 -371 -160q-189 0 -322 136v-623h-186zM358 303q50 -72 132 -114t165 -42q167 0 258 111q93 113 93 256q0 145 -97 256q-94 107 -250 107 q-94 0 -179.5 -53.5t-121.5 -141.5v-379z" />
<glyph unicode="q" horiz-adv-x="1282" d="M86 512q0 213 143 375t373 162q190 0 322 -138v113h186v-1536h-186v649q-53 -77 -140.5 -119.5t-185.5 -42.5q-220 0 -367 156q-145 157 -145 381zM276 508q0 -143 97 -254q94 -107 250 -107q90 0 177 53.5t124 139.5v381q-50 72 -132 114t-165 42q-169 0 -260 -111 q-91 -114 -91 -258z" />
<glyph unicode="r" horiz-adv-x="731" d="M172 0v1024h186v-170q109 195 265 195q47 0 110 -13l-35 -198q-41 20 -96 20q-145 0 -244 -172v-686h-186z" />
<glyph unicode="s" horiz-adv-x="923" d="M88 135l131 105q103 -109 223 -109q82 0 133.5 42.5t51.5 115.5q0 38 -33 67q-28 30 -57.5 45t-106.5 45q-2 1 -106 46q-31 13 -88 51q-99 71 -99 200q0 148 96 226q95 80 234 80q190 0 315 -113l-110 -119q-88 76 -203 76q-69 0 -111.5 -37t-42.5 -98q0 -39 33 -68 q21 -20 45.5 -34.5t43.5 -23t75 -30.5q124 -50 197 -104q102 -70 102 -201q0 -164 -106 -242q-109 -80 -265 -80q-228 0 -352 160z" />
<glyph unicode="t" horiz-adv-x="708" d="M45 860v164h137v246h187v-246h286v-164h-286v-463q0 -60 2 -80q5 -88 38 -130t105 -42q52 0 115 29l51 -149q-83 -45 -191 -45q-203 0 -274 159q-33 73 -33 213v508h-137z" />
<glyph unicode="u" horiz-adv-x="1241" d="M160 492v532h186v-512q0 -203 53 -283q55 -82 179 -82q84 0 165.5 53.5t139.5 143.5v680h186v-1024h-186v168q-120 -193 -334 -193q-203 0 -297 129q-92 127 -92 388z" />
<glyph unicode="v" horiz-adv-x="980" d="M16 1024h207l273 -793h4l270 793h199l-398 -1024h-168z" />
<glyph unicode="w" horiz-adv-x="1501" d="M33 1024h200l193 -788h4l227 788h201l207 -788h6l209 788h188l-294 -1024h-201l-219 797h-4l-226 -797h-209z" />
<glyph unicode="x" horiz-adv-x="1003" d="M12 0l377 510l-356 514h235l246 -365l244 365h225l-362 -498l370 -526h-237l-256 381l-256 -381h-230z" />
<glyph unicode="y" horiz-adv-x="976" d="M12 1024h207l266 -776h4l273 776h203l-576 -1485l-164 64l162 428z" />
<glyph unicode="z" horiz-adv-x="929" d="M98 860v164h723v-82l-452 -778h487v-164h-735v84l452 776h-475z" />
<glyph unicode="{" horiz-adv-x="636" d="M18 532l5 168q161 37 161 299v154q0 178 103 293t268 115q45 0 59 -2v-162q-50 4 -51 4q-106 0 -158.5 -81t-52.5 -222v-154q0 -215 -137 -328q137 -116 137 -327v-199q0 -141 52.5 -222t158.5 -81q5 0 51 4v-162q-14 -2 -59 -2q-165 0 -268 115t-103 293v223 q0 111 -43 184t-123 90z" />
<glyph unicode="|" horiz-adv-x="651" d="M246 -348v2105h160v-2105h-160z" />
<glyph unicode="}" horiz-adv-x="636" d="M20 -209q46 -4 52 -4q106 0 158.5 81t52.5 222v199q0 211 137 327q-137 113 -137 328v154q0 141 -52.5 222t-158.5 81q-2 0 -52 -4v162q14 2 60 2q165 0 268 -115t103 -293v-154q0 -262 161 -299l4 -168q-80 -17 -122.5 -90t-42.5 -184v-223q0 -178 -103 -293t-268 -115 q-46 0 -60 2v162z" />
<glyph unicode="~" d="M66 602q0 114 77 182t201 68q65 0 135.5 -27t118.5 -65q115 -92 197 -92q42 0 77 28.5t35 65.5q0 19 -4 35l156 16q4 -46 4 -65q0 -114 -77.5 -182t-201.5 -68q-59 -3 -129.5 26.5t-123 65.5t-108 65.5t-89.5 26.5q-44 0 -78.5 -27t-34.5 -67q0 -19 4 -35l-155 -16 q-4 46 -4 65z" />
<glyph unicode="&#xa1;" horiz-adv-x="649" d="M213 -182l20 776h183l20 -776v-228h-223v228zM217 786v238h215v-238h-215z" />
<glyph unicode="&#xa2;" d="M156 647q0 199 123 346q128 149 317 183v184h131v-178q137 -9 252 -86l-88 -154q-91 70 -209 70q-140 0 -238 -107t-98 -258q0 -163 98 -264q100 -100 240 -100q122 0 217 71l92 -143q-108 -86 -266 -98v-179h-131v183q-190 26 -317 172q-123 144 -123 358z" />
<glyph unicode="&#xa3;" d="M164 0v176h117v471h-117v172h117v111q0 200 116 325q117 129 297 129t301 -75l-80 -160q-69 63 -213 63q-235 0 -235 -338v-55h276v-172h-276v-471h528v-176h-831z" />
<glyph unicode="&#xa4;" d="M96 303l107 107q-82 113 -82 256q0 137 82 256l-107 106l105 105l106 -107q113 82 256 82q137 0 256 -82l107 107l104 -105l-106 -106q82 -119 82 -256q0 -143 -82 -256l106 -107l-104 -104l-107 106q-119 -82 -256 -82q-143 0 -256 82l-106 -106zM281 666 q0 -120 81 -201q82 -82 201 -82q117 0 199 82q84 84 84 201q0 114 -84 198t-199 84q-117 0 -201 -84q-81 -81 -81 -198z" />
<glyph unicode="&#xa5;" d="M35 1360h221l311 -572h4l301 572h218l-390 -684h304v-152h-349v-131h349v-151h-353v-242h-186v242h-352v151h348v131h-348v152h305z" />
<glyph unicode="&#xa6;" horiz-adv-x="651" d="M246 358h160v-768h-160v768zM246 768v768h160v-768h-160z" />
<glyph unicode="&#xa7;" d="M104 -133l111 131q144 -129 328 -129q108 0 179 48.5t71 131.5q0 59 -53 97.5t-165 72.5q-49 16 -75 23q-52 13 -84 24q-26 8 -77 28.5t-75 33.5q-90 63 -114 96q-44 75 -44 151q0 104 54.5 183.5t148.5 118.5q-155 91 -155 251q0 162 114 244q118 86 283 86 q209 0 362 -102l-100 -129q-125 76 -270 76q-87 0 -149 -40t-62 -110q0 -10 2 -19.5t4.5 -16.5t8.5 -16l9 -13.5t13 -14t13 -12t15 -13t15 -12.5q24 -16 120 -51q20 -9 74 -24l72 -23q138 -45 233 -113q111 -77 111 -225q0 -86 -55 -163t-144 -120q160 -86 160 -247 q0 -174 -119.5 -265.5t-320.5 -91.5q-271 0 -439 154zM297 614q0 -43 22.5 -73.5t65.5 -61.5q38 -25 129 -53q8 -3 78 -23q74 -21 76 -22q70 27 116.5 81.5t46.5 115.5q0 75 -86 129q-42 30 -124 55q-16 7 -76 24l-74 23q-78 -25 -126 -79t-48 -116z" />
<glyph unicode="&#xa8;" horiz-adv-x="737" d="M66 1225v209h190v-209h-190zM481 1225v209h191v-209h-191z" />
<glyph unicode="&#xa9;" horiz-adv-x="1636" d="M113 682q0 294 206 500q207 207 500 207t500 -207t207 -500t-207 -500t-500 -207t-500 207q-206 206 -206 500zM268 682q0 -228 160 -393q162 -162 391 -162q231 0 389 162q162 162 162 393q0 229 -162 391q-159 164 -389 164q-227 0 -391 -164q-160 -165 -160 -391z M440 682q0 161 115 270q117 111 285 111q112 0 207 -62l-72 -118q-77 41 -141 41q-103 0 -168.5 -68t-65.5 -174q0 -114 64 -179t170 -65q81 0 149 51l78 -118q-110 -72 -221 -72q-169 0 -285 104q-115 109 -115 279z" />
<glyph unicode="&#xaa;" horiz-adv-x="780" d="M78 989q0 116 85 173t224 57q50 0 133 -17v21q0 155 -153 155q-105 0 -217 -59l-44 117q146 67 283 67q279 0 279 -293v-419h-133l-9 69q-71 -86 -198 -86q-108 0 -179 57.5t-71 157.5zM223 997q0 -52 35 -79t94 -27q79 0 168 74v137q-60 14 -112 14q-185 0 -185 -119z " />
<glyph unicode="&#xab;" horiz-adv-x="1085" d="M123 436v244l297 307l90 -180l-260 -250l260 -248l-90 -180zM575 436v244l297 307l91 -180l-261 -250l261 -248l-91 -180z" />
<glyph unicode="&#xac;" d="M49 700v160h1026v-594h-160v434h-866z" />
<glyph unicode="&#xad;" horiz-adv-x="942" d="M205 487v168h532v-168h-532z" />
<glyph unicode="&#xae;" horiz-adv-x="1177" d="M113 991q0 199 139 338t336 139q199 0 338 -139t139 -338q0 -197 -139 -336t-338 -139q-197 0 -336 139t-139 336zM236 991q0 -144 102 -252q104 -104 250 -104q149 0 250 104q104 104 104 252q0 150 -104 254q-102 105 -250 105q-145 0 -250 -105q-102 -105 -102 -254z M412 743v494h120q123 0 178.5 -36t55.5 -114q0 -104 -98 -141l149 -203h-135l-133 187h-27v-187h-110zM522 1020q71 0 100 13t29 50q0 38 -25.5 51t-103.5 13v-127z" />
<glyph unicode="&#xaf;" horiz-adv-x="737" d="M66 1245v144h606v-144h-606z" />
<glyph unicode="&#xb0;" horiz-adv-x="946" d="M164 1112q0 125 90 215q89 92 217 92q125 0 217 -92q94 -88 94 -215t-94 -215q-91 -88 -217 -88q-129 0 -217 88q-90 90 -90 215zM302 1112q0 -72 50 -123q50 -49 119.5 -49t120.5 49q51 51 51 123t-51 123q-51 54 -120.5 54t-119.5 -54q-50 -51 -50 -123z" />
<glyph unicode="&#xb1;" d="M51 0v160h1024v-160h-1024zM51 700v160h432v432h160v-432h432v-160h-432v-430h-160v430h-432z" />
<glyph unicode="&#xb2;" horiz-adv-x="653" d="M59 1366q7 96 83 158.5t177 62.5q103 0 179 -61q77 -62 77 -160q0 -106 -83 -227q-69 -99 -218 -260h338v-127h-534v118q158 164 280 336q66 91 66 158q0 42 -32 69t-77 27q-48 0 -78 -32.5t-30 -86.5z" />
<glyph unicode="&#xb3;" horiz-adv-x="653" d="M35 897l121 59q46 -88 147 -88q58 0 96.5 32t38.5 87q0 59 -44.5 93t-114.5 34q-51 0 -78 -8v131q77 3 104 12q43 11 69.5 40t26.5 67q0 45 -32.5 74.5t-83.5 29.5q-96 0 -117 -86l-123 53q25 74 89.5 117t150.5 43q114 0 190 -61t76 -158q0 -54 -27.5 -101.5 t-72.5 -72.5q62 -24 100.5 -78.5t38.5 -122.5q0 -115 -80.5 -183.5t-204.5 -68.5q-88 0 -161.5 41.5t-108.5 114.5z" />
<glyph unicode="&#xb4;" horiz-adv-x="737" d="M233 1245l252 346l136 -104l-275 -328z" />
<glyph unicode="&#xb5;" d="M109 -512v1536h186v-512q0 -125 16 -199q19 -79 68.5 -119.5t146.5 -46.5q84 0 165.5 53.5t139.5 143.5v680h187v-1024h-187v168q-120 -193 -333 -193q-123 0 -203 45v-532h-186z" />
<glyph unicode="&#xb6;" d="M86 1006q0 90 30.5 164t80.5 122t116.5 81t136 47t142.5 14h115v-1792h-197v936q-181 21 -301 127q-123 108 -123 301zM283 1006q0 -107 63 -171t164 -75v493q-101 -13 -164 -77t-63 -170zM823 -358v1792h197v-1792h-197z" />
<glyph unicode="&#xb7;" horiz-adv-x="512" d="M147 530v238h215v-238h-215z" />
<glyph unicode="&#xb8;" horiz-adv-x="737" d="M152 -381l116 57q24 -65 94 -65q38 0 63.5 26.5t25.5 63.5q0 42 -26 69t-67 27q-58 0 -79 -49l-125 66l86 206l116 -22l-49 -131l2 -2q44 33 99 33q73 0 125.5 -55t52.5 -136q0 -82 -66 -145q-64 -64 -158 -64q-142 0 -210 121z" />
<glyph unicode="&#xb9;" horiz-adv-x="442" d="M66 1352v135l170 90h96v-825h-148v653z" />
<glyph unicode="&#xba;" horiz-adv-x="839" d="M61 1139q0 152 103 258q100 106 256 106t256 -106q102 -105 102 -258q0 -152 -102 -260q-102 -105 -256 -105t-256 105q-103 109 -103 260zM213 1139q0 -100 57 -166q60 -66 150 -66q87 0 147 66q60 69 60 166q0 98 -60 164q-58 67 -147 67q-92 0 -150 -67 q-57 -63 -57 -164z" />
<glyph unicode="&#xbb;" horiz-adv-x="1085" d="M123 307l260 248l-260 250l90 160l297 -287v-244l-297 -287zM575 307l261 248l-261 250l91 160l297 -287v-244l-297 -287z" />
<glyph unicode="&#xbc;" horiz-adv-x="1525" d="M164 57l1018 1401l112 -82l-1018 -1401zM209 1225v127l65 32l93 50h92v-742h-142v580q-84 -38 -108 -47zM797 182v125l315 428h143v-436h107v-117h-107v-182h-139v182h-319zM946 299h170v250q-47 -69 -89 -130.5t-60.5 -89t-20.5 -30.5z" />
<glyph unicode="&#xbd;" horiz-adv-x="1576" d="M164 57l1018 1401l112 -82l-1018 -1401zM209 1225v127l65 32l93 50h92v-742h-142v580q-84 -38 -108 -47zM905 547q6 89 76 146t166 57q94 0 164 -58q71 -56 71 -145q0 -90 -79 -203q-60 -87 -191 -225h301v-119h-491v109q148 151 256 301q57 75 57 137q5 49 -46 71 q-49 21 -95 -3q-52 -27 -47 -93z" />
<glyph unicode="&#xbe;" horiz-adv-x="1662" d="M164 831l119 56q37 -82 131 -82q51 0 83.5 28t32.5 76q0 50 -39.5 79.5t-103.5 29.5q-41 0 -65 -6v123q65 0 92 8q84 21 84 96q0 39 -29 63.5t-76 24.5q-80 0 -98 -78l-121 54q25 67 85 106t136 39q104 0 175 -56t71 -143q0 -47 -25.5 -89.5t-66.5 -65.5q57 -20 92 -70 t35 -113q0 -101 -74.5 -163t-187.5 -62q-82 0 -149 37.5t-101 107.5zM301 57l1018 1401l113 -82l-1018 -1401zM934 182v125l315 428h144v-436h106v-117h-106v-182h-140v182h-319zM1083 299h170v250q-47 -69 -89 -130.5t-60.5 -89t-20.5 -30.5z" />
<glyph unicode="&#xbf;" horiz-adv-x="1107" d="M150 -61q0 172 83 264q81 90 232 159v234h199v-340q-141 -47 -224 -104q-104 -75 -104 -207q0 -87 62 -148t153 -61q100 0 159.5 62t59.5 167v17h186v-9q0 -176 -120 -290q-121 -115 -285 -115q-169 0 -287 115q-114 114 -114 256zM457 788v238h215v-238h-215z" />
<glyph unicode="&#xc0;" horiz-adv-x="1337" d="M31 0l555 1434h172l549 -1434h-228l-112 305h-611l-110 -305h-215zM360 1774l107 135l338 -283l-86 -110zM422 481h481l-239 654h-2z" />
<glyph unicode="&#xc1;" horiz-adv-x="1337" d="M31 0l555 1434h172l549 -1434h-228l-112 305h-611l-110 -305h-215zM422 481h481l-239 654h-2zM539 1626l338 283l106 -135l-358 -258z" />
<glyph unicode="&#xc2;" horiz-adv-x="1337" d="M31 0l555 1434h172l549 -1434h-228l-112 305h-611l-110 -305h-215zM348 1614l225 274h195l219 -274l-110 -86l-209 237l-207 -237zM422 481h481l-239 654h-2z" />
<glyph unicode="&#xc3;" horiz-adv-x="1337" d="M31 0l555 1434h172l549 -1434h-228l-112 305h-611l-110 -305h-215zM348 1628q0 87 56.5 141t144.5 54q73 0 170 -66q95 -65 133 -65q65 0 68 61q0 17 -2 21l133 14q4 -32 4 -55q0 -87 -56.5 -141t-144.5 -54q-54 0 -114 33t-110 65.5t-79 32.5q-65 0 -68 -61q0 -17 2 -21 l-133 -14q-4 32 -4 55zM422 481h481l-239 654h-2z" />
<glyph unicode="&#xc4;" horiz-adv-x="1337" d="M31 0l555 1434h172l549 -1434h-228l-112 305h-611l-110 -305h-215zM289 1565v227h209v-227h-209zM422 481h481l-239 654h-2zM842 1565v227h209v-227h-209z" />
<glyph unicode="&#xc5;" horiz-adv-x="1337" d="M31 0l555 1434h172l549 -1434h-228l-112 305h-611l-110 -305h-215zM422 481h481l-239 654h-2zM484 1676.5q0 77.5 55 133.5q57 57 135 57t133 -57q57 -56 57 -133.5t-57 -134.5q-55 -56 -133 -56t-135 56q-55 57 -55 134.5zM584 1677.5q0 -37.5 26 -63.5t63.5 -26 t63.5 26t26 63.5t-26 63.5t-63.5 26t-63.5 -26t-26 -63.5z" />
<glyph unicode="&#xc6;" horiz-adv-x="2019" d="M-20 0l1048 1434h858v-177h-663v-430h663v-176h-663v-475h663v-176h-860v305h-586l-215 -305h-245zM563 481h463v658z" />
<glyph unicode="&#xc7;" horiz-adv-x="1380" d="M123 717q0 318 223 528q227 213 547 213q208 0 385 -110l-92 -152q-139 86 -293 86q-244 0 -404 -160q-157 -160 -157 -405q0 -260 155 -412q156 -153 406 -153q170 0 317 100l105 -146q-192 -131 -422 -131q-67 0 -119 9l-49 -117l4 -2q36 33 98 33q78 0 128.5 -55 t50.5 -136q0 -82 -66 -145q-64 -64 -158 -64q-143 0 -211 121l117 57q24 -65 94 -65q38 0 63 26.5t25 63.5q0 40 -24 68t-64 28q-57 0 -84 -49l-127 68l88 190q-240 64 -389 254q-147 188 -147 457z" />
<glyph unicode="&#xc8;" horiz-adv-x="1187" d="M195 0v1434h860v-177h-664v-430h664v-176h-664v-475h664v-176h-860zM346 1774l107 135l338 -283l-86 -110z" />
<glyph unicode="&#xc9;" horiz-adv-x="1187" d="M195 0v1434h860v-177h-664v-430h664v-176h-664v-475h664v-176h-860zM471 1626l338 283l106 -135l-358 -258z" />
<glyph unicode="&#xca;" horiz-adv-x="1187" d="M195 0v1434h860v-177h-664v-430h664v-176h-664v-475h664v-176h-860zM315 1614l226 274h194l219 -274l-110 -86l-209 237l-207 -237z" />
<glyph unicode="&#xcb;" horiz-adv-x="1187" d="M195 0v1434h860v-177h-664v-430h664v-176h-664v-475h664v-176h-860zM303 1565v227h205v-227h-205zM774 1565v227h205v-227h-205z" />
<glyph unicode="&#xcc;" horiz-adv-x="585" d="M-14 1774l106 135l338 -283l-86 -110zM195 0v1434h196v-1434h-196z" />
<glyph unicode="&#xcd;" horiz-adv-x="585" d="M164 1626l338 283l106 -135l-358 -258zM195 0v1434h196v-1434h-196z" />
<glyph unicode="&#xce;" horiz-adv-x="585" d="M-27 1614l226 274h194l219 -274l-110 -86l-209 237l-207 -237zM195 0v1434h196v-1434h-196z" />
<glyph unicode="&#xcf;" horiz-adv-x="585" d="M-45 1565v227h209v-227h-209zM195 0v1434h196v-1434h-196zM422 1565v227h209v-227h-209z" />
<glyph unicode="&#xd0;" horiz-adv-x="1474" d="M51 657v162h144v615h387q114 0 220.5 -23.5t207.5 -78t176 -135t120.5 -202.5t45.5 -272q0 -188 -66.5 -333t-185.5 -228q-229 -162 -539 -162h-366v657h-144zM391 176h68q340 0 512 126t172 403q0 267 -156 409.5t-442 142.5h-154v-438h246v-162h-246v-481z" />
<glyph unicode="&#xd1;" horiz-adv-x="1546" d="M195 0v1434h172l788 -1069v1069h197v-1434h-174l-787 1069v-1069h-196zM436 1628q0 87 56.5 141t144.5 54q73 0 170 -66q95 -65 133 -65q65 0 68 61q0 17 -2 21l133 14q4 -32 4 -55q0 -87 -56.5 -141t-144.5 -54q-54 0 -114 33t-110 65.5t-79 32.5q-65 0 -68 -61 q0 -17 2 -21l-133 -14q-4 32 -4 55z" />
<glyph unicode="&#xd2;" horiz-adv-x="1720" d="M123 717q0 308 213 524q211 217 524 217t524 -217q213 -216 213 -524t-213 -527q-212 -215 -524 -215t-524 215q-213 219 -213 527zM332 717q0 -242 149 -404q148 -161 379 -161q229 0 377 161q152 166 152 404q0 235 -152 401q-150 164 -377 164q-229 0 -379 -164 q-149 -162 -149 -401zM553 1774l106 135l338 -283l-86 -110z" />
<glyph unicode="&#xd3;" horiz-adv-x="1720" d="M123 717q0 308 213 524q211 217 524 217t524 -217q213 -216 213 -524t-213 -527q-212 -215 -524 -215t-524 215q-213 219 -213 527zM332 717q0 -242 149 -404q148 -161 379 -161q229 0 377 161q152 166 152 404q0 235 -152 401q-150 164 -377 164q-229 0 -379 -164 q-149 -162 -149 -401zM731 1626l338 283l107 -135l-359 -258z" />
<glyph unicode="&#xd4;" horiz-adv-x="1720" d="M123 717q0 308 213 524q211 217 524 217t524 -217q213 -216 213 -524t-213 -527q-212 -215 -524 -215t-524 215q-213 219 -213 527zM332 717q0 -242 149 -404q148 -161 379 -161q229 0 377 161q152 166 152 404q0 235 -152 401q-150 164 -377 164q-229 0 -379 -164 q-149 -162 -149 -401zM537 1614l225 274h194l220 -274l-111 -86l-209 237l-207 -237z" />
<glyph unicode="&#xd5;" horiz-adv-x="1720" d="M123 717q0 308 213 524q211 217 524 217t524 -217q213 -216 213 -524t-213 -527q-212 -215 -524 -215t-524 215q-213 219 -213 527zM332 717q0 -242 149 -404q148 -161 379 -161q229 0 377 161q152 166 152 404q0 235 -152 401q-150 164 -377 164q-229 0 -379 -164 q-149 -162 -149 -401zM549 1628q0 87 56.5 141t144.5 54q73 0 170 -66q95 -65 133 -65q64 0 67 61q0 17 -2 21l133 14q4 -32 4 -55q0 -87 -56 -141t-144 -54q-54 0 -114 33t-110 65.5t-79 32.5q-65 0 -68 -61q0 -17 2 -21l-133 -14q-4 32 -4 55z" />
<glyph unicode="&#xd6;" horiz-adv-x="1720" d="M123 717q0 308 213 524q211 217 524 217t524 -217q213 -216 213 -524t-213 -527q-212 -215 -524 -215t-524 215q-213 219 -213 527zM332 717q0 -242 149 -404q148 -161 379 -161q229 0 377 161q152 166 152 404q0 235 -152 401q-150 164 -377 164q-229 0 -379 -164 q-149 -162 -149 -401zM479 1565v227h209v-227h-209zM1032 1565v227h209v-227h-209z" />
<glyph unicode="&#xd7;" d="M145 332l306 305l-306 305l113 115l305 -307l307 307l113 -115l-305 -305l303 -303l-113 -115l-305 305l-305 -305z" />
<glyph unicode="&#xd8;" horiz-adv-x="1720" d="M123 717q0 308 213 524q211 217 524 217q180 0 338 -82l57 86l138 -86l-60 -88q124 -104 194 -253t70 -318q0 -308 -213 -527q-212 -215 -524 -215q-196 0 -354 88l-68 -100l-137 86l72 107q-119 103 -184.5 249t-65.5 312zM332 717q0 -244 149 -402l615 912 q-110 55 -236 55q-229 0 -379 -164q-149 -162 -149 -401zM608 215q111 -63 252 -63q229 0 377 161q152 166 152 404q0 248 -162 413z" />
<glyph unicode="&#xd9;" horiz-adv-x="1478" d="M184 674v760h197v-811q0 -231 93 -351t265 -120t265.5 120t93.5 351v811h196v-760q0 -350 -136.5 -524.5t-422.5 -174.5q-551 0 -551 699zM432 1774l107 135l338 -283l-86 -110z" />
<glyph unicode="&#xda;" horiz-adv-x="1478" d="M184 674v760h197v-811q0 -231 93 -351t265 -120t265.5 120t93.5 351v811h196v-760q0 -350 -136.5 -524.5t-422.5 -174.5q-551 0 -551 699zM610 1626l338 283l107 -135l-359 -258z" />
<glyph unicode="&#xdb;" horiz-adv-x="1478" d="M184 674v760h197v-811q0 -231 93 -351t265 -120t265.5 120t93.5 351v811h196v-760q0 -350 -136.5 -524.5t-422.5 -174.5q-551 0 -551 699zM436 1614l226 274h194l219 -274l-110 -86l-209 237l-207 -237z" />
<glyph unicode="&#xdc;" horiz-adv-x="1478" d="M184 674v760h197v-811q0 -231 93 -351t265 -120t265.5 120t93.5 351v811h196v-760q0 -350 -136.5 -524.5t-422.5 -174.5q-551 0 -551 699zM358 1565v227h209v-227h-209zM911 1565v227h209v-227h-209z" />
<glyph unicode="&#xdd;" horiz-adv-x="1136" d="M10 1434h244l319 -603h7l317 603h229l-462 -822v-612h-197v623zM420 1626l338 283l106 -135l-358 -258z" />
<glyph unicode="&#xde;" horiz-adv-x="1230" d="M195 0v1436h196v-281h232q73 0 142.5 -14t136 -47t116 -81t80 -121.5t30.5 -164.5q0 -92 -30.5 -166.5t-80 -123t-116 -81.5t-136 -47t-142.5 -14h-232v-295h-196zM391 471h180q349 0 349 250q0 118 -84 188t-224 70h-221v-508z" />
<glyph unicode="&#xdf;" horiz-adv-x="1280" d="M164 0v1108q0 202 129 328q131 125 323 125q191 0 318 -115q125 -113 125 -301q0 -83 -42.5 -156.5t-113.5 -122.5q135 -43 210 -150.5t75 -266.5q0 -215 -139 -345q-138 -129 -349 -129q-115 0 -217 54l70 159q68 -41 154 -41q143 0 216.5 79.5t73.5 222.5 q0 151 -95 233t-253 82q-54 0 -90 -4v147h41q102 0 186 66q86 65 86 168q0 113 -68 180.5t-183 67.5q-132 0 -201.5 -84t-69.5 -238v-1067h-186z" />
<glyph unicode="&#xe0;" horiz-adv-x="1118" d="M111 287q0 124 69 202q66 76 161 107t226 31q87 0 205 -23v37q0 246 -242 246q-159 0 -325 -90l-55 155q205 97 403 97q211 0 308 -107t97 -319v-623h-178v109q-122 -134 -307 -134q-160 0 -261 81t-101 231zM279 1487l135 104l252 -346l-113 -86zM293 301 q0 -85 54.5 -127.5t148.5 -42.5q132 0 276 123v211q-90 20 -184 20q-295 0 -295 -184z" />
<glyph unicode="&#xe1;" horiz-adv-x="1118" d="M111 287q0 124 69 202q66 76 161 107t226 31q87 0 205 -23v37q0 246 -242 246q-159 0 -325 -90l-55 155q205 97 403 97q211 0 308 -107t97 -319v-623h-178v109q-122 -134 -307 -134q-160 0 -261 81t-101 231zM293 301q0 -85 54.5 -127.5t148.5 -42.5q132 0 276 123v211 q-90 20 -184 20q-295 0 -295 -184zM422 1245l252 346l135 -104l-274 -328z" />
<glyph unicode="&#xe2;" horiz-adv-x="1118" d="M111 287q0 124 69 202q66 76 161 107t226 31q87 0 205 -23v37q0 246 -242 246q-159 0 -325 -90l-55 155q205 97 403 97q211 0 308 -107t97 -319v-623h-178v109q-122 -134 -307 -134q-160 0 -261 81t-101 231zM231 1233l213 321h181l209 -321l-109 -74l-190 264l-191 -264 zM293 301q0 -85 54.5 -127.5t148.5 -42.5q132 0 276 123v211q-90 20 -184 20q-295 0 -295 -184z" />
<glyph unicode="&#xe3;" horiz-adv-x="1118" d="M111 287q0 124 69 202q66 76 161 107t226 31q87 0 205 -23v37q0 246 -242 246q-159 0 -325 -90l-55 155q205 97 403 97q211 0 308 -107t97 -319v-623h-178v109q-122 -134 -307 -134q-160 0 -261 81t-101 231zM186 1274q0 87 56 140.5t145 53.5q78 0 170 -65 q97 -66 133 -66q65 0 68 62q0 16 -2 20l133 15q4 -32 4 -48q0 -87 -56 -140.5t-145 -53.5q-44 0 -91.5 20.5t-81.5 45t-70.5 45t-59.5 20.5q-64 0 -67 -61q0 -17 2 -21l-134 -14q-4 32 -4 47zM293 301q0 -85 54.5 -127.5t148.5 -42.5q132 0 276 123v211q-90 20 -184 20 q-295 0 -295 -184z" />
<glyph unicode="&#xe4;" horiz-adv-x="1118" d="M111 287q0 124 69 202q66 76 161 107t226 31q87 0 205 -23v37q0 246 -242 246q-159 0 -325 -90l-55 155q205 97 403 97q211 0 308 -107t97 -319v-623h-178v109q-122 -134 -307 -134q-160 0 -261 81t-101 231zM233 1225v209h191v-209h-191zM293 301q0 -85 54.5 -127.5 t148.5 -42.5q132 0 276 123v211q-90 20 -184 20q-295 0 -295 -184zM649 1225v209h191v-209h-191z" />
<glyph unicode="&#xe5;" horiz-adv-x="1118" d="M111 287q0 124 69 202q66 76 161 107t226 31q87 0 205 -23v37q0 246 -242 246q-159 0 -325 -90l-55 155q205 97 403 97q211 0 308 -107t97 -319v-623h-178v109q-122 -134 -307 -134q-160 0 -261 81t-101 231zM293 301q0 -85 54.5 -127.5t148.5 -42.5q132 0 276 123v211 q-90 20 -184 20q-295 0 -295 -184zM352 1347.5q0 78.5 56 133.5q57 57 134.5 57t133.5 -57q57 -56 57 -134t-57 -135q-56 -56 -133.5 -56t-134.5 56q-56 57 -56 135.5zM453 1347.5q0 -37.5 26 -63.5t63.5 -26t63.5 26t26 63.5t-26 63.5t-63.5 26t-63.5 -26t-26 -63.5z" />
<glyph unicode="&#xe6;" horiz-adv-x="1824" d="M111 287q0 124 69 202q66 76 161 107t226 31q87 0 205 -23v37q0 246 -242 246q-159 0 -325 -90l-55 155q205 97 403 97q262 0 350 -172q144 172 369 172q201 0 334 -136t133 -342q0 -59 -8 -106h-781q9 -140 99 -236q88 -94 231 -94q217 0 305 166l135 -86 q-150 -240 -448 -240q-256 0 -395 177q-151 -177 -404 -177q-160 0 -261 81t-101 231zM293 301q0 -85 54.5 -127.5t148.5 -42.5q166 0 307 156q-32 83 -39 180q-91 18 -176 18q-295 0 -295 -184zM965 614h581q-6 112 -84 193q-76 82 -188 82q-116 0 -197.5 -75t-111.5 -200z " />
<glyph unicode="&#xe7;" horiz-adv-x="972" d="M86 512q0 225 156 381t379 156q157 0 288 -88l-88 -154q-91 70 -209 70q-139 0 -237 -107q-99 -108 -99 -258q0 -162 99 -264q101 -101 239 -101q120 0 217 72l93 -143q-122 -101 -314 -101q-26 0 -32 2l-41 -110l2 -2q44 33 98 33q73 0 125.5 -55t52.5 -136 q0 -83 -65 -145q-64 -64 -158 -64q-143 0 -211 121l117 57q24 -65 94 -65q38 0 63 26.5t25 63.5q0 42 -25.5 69t-66.5 27q-59 0 -80 -49l-125 66l76 182q-171 47 -271 182q-102 138 -102 334z" />
<glyph unicode="&#xe8;" horiz-adv-x="1146" d="M86 512q0 227 145 381q147 156 363 156q201 0 334 -136t133 -342q0 -59 -8 -106h-781q9 -140 99 -236q88 -94 231 -94q217 0 305 166l135 -86q-150 -240 -448 -240q-236 0 -373 152q-135 150 -135 385zM287 614h581q-6 112 -84 193q-76 82 -188 82q-116 0 -197.5 -75 t-111.5 -200zM313 1487l136 104l251 -346l-112 -86z" />
<glyph unicode="&#xe9;" horiz-adv-x="1146" d="M86 512q0 227 145 381q147 156 363 156q201 0 334 -136t133 -342q0 -59 -8 -106h-781q9 -140 99 -236q88 -94 231 -94q217 0 305 166l135 -86q-150 -240 -448 -240q-236 0 -373 152q-135 150 -135 385zM287 614h581q-6 112 -84 193q-76 82 -188 82q-116 0 -197.5 -75 t-111.5 -200zM487 1245l252 346l135 -104l-274 -328z" />
<glyph unicode="&#xea;" horiz-adv-x="1146" d="M86 512q0 227 145 381q147 156 363 156q201 0 334 -136t133 -342q0 -59 -8 -106h-781q9 -140 99 -236q88 -94 231 -94q217 0 305 166l135 -86q-150 -240 -448 -240q-236 0 -373 152q-135 150 -135 385zM287 614h581q-6 112 -84 193q-76 82 -188 82q-116 0 -197.5 -75 t-111.5 -200zM291 1233l213 321h180l209 -321l-109 -74l-190 264l-191 -264z" />
<glyph unicode="&#xeb;" horiz-adv-x="1146" d="M86 512q0 227 145 381q147 156 363 156q201 0 334 -136t133 -342q0 -59 -8 -106h-781q9 -140 99 -236q88 -94 231 -94q217 0 305 166l135 -86q-150 -240 -448 -240q-236 0 -373 152q-135 150 -135 385zM287 614h581q-6 112 -84 193q-76 82 -188 82q-116 0 -197.5 -75 t-111.5 -200zM291 1225v209h190v-209h-190zM707 1225v209h190v-209h-190z" />
<glyph unicode="&#xec;" horiz-adv-x="530" d="M-20 1487l135 104l252 -346l-113 -86zM172 0v1024h186v-1024h-186z" />
<glyph unicode="&#xed;" horiz-adv-x="530" d="M160 1245l252 346l135 -104l-275 -328zM172 0v1024h186v-1024h-186z" />
<glyph unicode="&#xee;" horiz-adv-x="530" d="M-37 1233l213 321h180l209 -321l-108 -74l-191 264l-190 -264zM172 0v1024h186v-1024h-186z" />
<glyph unicode="&#xef;" horiz-adv-x="530" d="M-37 1225v209h191v-209h-191zM172 0v1024h186v-1024h-186zM379 1225v209h190v-209h-190z" />
<glyph unicode="&#xf0;" horiz-adv-x="1175" d="M86 483q0 195 131 332q132 141 318 141q143 0 260 -69q-109 189 -326 336l-117 -201l-129 78l117 200q-80 44 -203 97l70 162q144 -65 221 -107l113 195l131 -76l-113 -195q531 -344 531 -901q0 -209 -142 -354q-140 -146 -377 -146q-217 0 -352 150q-133 151 -133 358z M276 479q0 -140 86 -235q91 -97 226 -97q153 0 231 96.5t78 258.5q0 101 -31 219q-121 65 -268 65q-143 0 -232.5 -82t-89.5 -225z" />
<glyph unicode="&#xf1;" horiz-adv-x="1241" d="M172 0v1024h186v-168q120 193 334 193q202 0 297 -129q92 -127 92 -388v-532h-186v512q0 203 -53 283q-55 82 -178 82q-85 0 -166.5 -53.5t-139.5 -143.5v-680h-186zM305 1274q0 87 56 140.5t145 53.5q78 0 170 -65q97 -66 133 -66q65 0 68 62q0 14 -3 20l134 15 q4 -32 4 -48q0 -87 -56 -140.5t-145 -53.5q-44 0 -91.5 20.5t-81.5 45t-70.5 45t-59.5 20.5q-65 0 -68 -61q0 -17 2 -21l-133 -14q-4 32 -4 47z" />
<glyph unicode="&#xf2;" horiz-adv-x="1216" d="M86 512q0 225 150 381t372 156q223 0 373 -156q149 -155 149 -381t-149 -381q-150 -156 -373 -156q-222 0 -372 156t-150 381zM276 512q0 -149 95 -258q94 -107 237 -107q144 0 238 107t94 258t-94 258t-238 107q-143 0 -237 -107q-95 -109 -95 -258zM313 1487l136 104 l251 -346l-112 -86z" />
<glyph unicode="&#xf3;" horiz-adv-x="1216" d="M86 512q0 225 150 381t372 156q223 0 373 -156q149 -155 149 -381t-149 -381q-150 -156 -373 -156q-222 0 -372 156t-150 381zM276 512q0 -149 95 -258q94 -107 237 -107q144 0 238 107t94 258t-94 258t-238 107q-143 0 -237 -107q-95 -109 -95 -258zM510 1245l252 346 l135 -104l-274 -328z" />
<glyph unicode="&#xf4;" horiz-adv-x="1216" d="M86 512q0 225 150 381t372 156q223 0 373 -156q149 -155 149 -381t-149 -381q-150 -156 -373 -156q-222 0 -372 156t-150 381zM276 512q0 -149 95 -258q94 -107 237 -107q144 0 238 107t94 258t-94 258t-238 107q-143 0 -237 -107q-95 -109 -95 -258zM305 1233l213 321 h180l209 -321l-108 -74l-191 264l-190 -264z" />
<glyph unicode="&#xf5;" horiz-adv-x="1216" d="M86 512q0 225 150 381t372 156q223 0 373 -156q149 -155 149 -381t-149 -381q-150 -156 -373 -156q-222 0 -372 156t-150 381zM268 1274q0 87 56 140.5t145 53.5q78 0 170 -65q97 -66 133 -66q65 0 68 62q0 16 -2 20l133 15q4 -32 4 -48q0 -87 -56 -140.5t-145 -53.5 q-44 0 -91.5 20.5t-81.5 45t-70.5 45t-59.5 20.5q-65 0 -68 -61q0 -15 3 -21l-134 -14q-4 32 -4 47zM276 512q0 -149 95 -258q94 -107 237 -107q144 0 238 107t94 258t-94 258t-238 107q-143 0 -237 -107q-95 -109 -95 -258z" />
<glyph unicode="&#xf6;" horiz-adv-x="1216" d="M86 512q0 225 150 381t372 156q223 0 373 -156q149 -155 149 -381t-149 -381q-150 -156 -373 -156q-222 0 -372 156t-150 381zM276 512q0 -149 95 -258q94 -107 237 -107q144 0 238 107t94 258t-94 258t-238 107q-143 0 -237 -107q-95 -109 -95 -258zM305 1225v209h191 v-209h-191zM721 1225v209h190v-209h-190z" />
<glyph unicode="&#xf7;" d="M49 557v160h1026v-160h-1026zM455 125v237h215v-237h-215zM455 911v238h215v-238h-215z" />
<glyph unicode="&#xf8;" horiz-adv-x="1216" d="M86 512q0 225 150 381t372 156q131 0 238 -58l51 76l111 -72l-54 -77q176 -159 176 -406q0 -226 -149 -381q-150 -156 -373 -156q-132 0 -250 62l-53 -80l-110 72l57 86q-166 156 -166 397zM276 512q0 -141 80 -244l389 576q-62 33 -137 33q-143 0 -237 -107 q-95 -109 -95 -258zM459 184q64 -37 149 -37q144 0 238 107t94 258q0 148 -90 252z" />
<glyph unicode="&#xf9;" horiz-adv-x="1241" d="M160 492v532h186v-512q0 -203 53 -283q55 -82 179 -82q84 0 165.5 53.5t139.5 143.5v680h186v-1024h-186v168q-120 -193 -334 -193q-203 0 -297 129q-92 127 -92 388zM356 1487l136 104l251 -346l-112 -86z" />
<glyph unicode="&#xfa;" horiz-adv-x="1241" d="M160 492v532h186v-512q0 -203 53 -283q55 -82 179 -82q84 0 165.5 53.5t139.5 143.5v680h186v-1024h-186v168q-120 -193 -334 -193q-203 0 -297 129q-92 127 -92 388zM516 1245l252 346l135 -104l-274 -328z" />
<glyph unicode="&#xfb;" horiz-adv-x="1241" d="M160 492v532h186v-512q0 -203 53 -283q55 -82 179 -82q84 0 165.5 53.5t139.5 143.5v680h186v-1024h-186v168q-120 -193 -334 -193q-203 0 -297 129q-92 127 -92 388zM328 1233l213 321h180l209 -321l-109 -74l-190 264l-191 -264z" />
<glyph unicode="&#xfc;" horiz-adv-x="1241" d="M160 492v532h186v-512q0 -203 53 -283q55 -82 179 -82q84 0 165.5 53.5t139.5 143.5v680h186v-1024h-186v168q-120 -193 -334 -193q-203 0 -297 129q-92 127 -92 388zM313 1225v209h191v-209h-191zM729 1225v209h191v-209h-191z" />
<glyph unicode="&#xfd;" horiz-adv-x="976" d="M12 1024h207l266 -776h4l273 776h203l-576 -1485l-164 64l162 428zM360 1245l252 346l136 -104l-275 -328z" />
<glyph unicode="&#xfe;" horiz-adv-x="1282" d="M172 -512v2048h186v-649q53 77 140.5 119.5t185.5 42.5q221 0 365 -156q147 -156 147 -383q0 -210 -145 -375q-145 -160 -371 -160q-189 0 -322 136v-623h-186zM358 303q50 -72 132 -114t165 -42q167 0 258 111q93 113 93 256q0 145 -97 256q-94 107 -250 107 q-94 0 -179.5 -53.5t-121.5 -141.5v-379z" />
<glyph unicode="&#xff;" horiz-adv-x="976" d="M12 1024h207l266 -776h4l273 776h203l-576 -1485l-164 64l162 428zM190 1225v209h191v-209h-191zM606 1225v209h191v-209h-191z" />
<glyph unicode="&#x152;" horiz-adv-x="2177" d="M123 717q0 308 213 524q211 217 524 217q173 0 324 -92v68h860v-177h-664v-430h664v-176h-664v-475h664v-176h-860v68q-152 -93 -324 -93q-312 0 -524 215q-213 219 -213 527zM332 717q0 -242 149 -404q148 -161 379 -161q187 0 324 110v909q-138 111 -324 111 q-229 0 -379 -164q-149 -162 -149 -401z" />
<glyph unicode="&#x153;" horiz-adv-x="1992" d="M86 512q0 225 150 381q152 158 372 158q131 0 241.5 -61t180.5 -169q69 107 176 168.5t234 61.5q201 0 334 -136t133 -342q0 -55 -9 -108h-780q9 -140 99 -236q88 -94 231 -94q217 0 305 166l135 -86q-150 -240 -448 -240q-280 0 -416 222q-151 -222 -416 -222 q-222 0 -372 156t-150 381zM276 514q0 -151 95 -260q94 -107 239 -107q142 0 236 107t94 260q0 149 -94 256q-95 109 -236 109q-144 0 -239 -109t-95 -256zM1133 616h581q-6 112 -84 193q-76 82 -188 82q-116 0 -197.5 -75t-111.5 -200z" />
<glyph unicode="&#x178;" horiz-adv-x="1136" d="M10 1434h244l319 -603h7l317 603h229l-462 -822v-612h-197v623zM248 1565v227h205v-227h-205zM719 1565v227h205v-227h-205z" />
<glyph unicode="&#x2c6;" horiz-adv-x="737" d="M66 1233l213 321h180l209 -321l-109 -74l-190 264l-191 -264z" />
<glyph unicode="&#x2dc;" horiz-adv-x="737" d="M16 1274q0 87 56 140.5t145 53.5q78 0 170 -65q97 -66 133 -66q65 0 68 62q0 16 -2 20l133 15q4 -32 4 -48q0 -87 -56 -140.5t-145 -53.5q-80 0 -172 65q-94 66 -131 66q-64 0 -67 -61q0 -17 2 -21l-134 -14q-4 32 -4 47z" />
<glyph unicode="&#x2000;" horiz-adv-x="954" />
<glyph unicode="&#x2001;" horiz-adv-x="1909" />
<glyph unicode="&#x2002;" horiz-adv-x="954" />
<glyph unicode="&#x2003;" horiz-adv-x="1909" />
<glyph unicode="&#x2004;" horiz-adv-x="636" />
<glyph unicode="&#x2005;" horiz-adv-x="477" />
<glyph unicode="&#x2006;" horiz-adv-x="318" />
<glyph unicode="&#x2007;" horiz-adv-x="318" />
<glyph unicode="&#x2008;" horiz-adv-x="238" />
<glyph unicode="&#x2009;" horiz-adv-x="381" />
<glyph unicode="&#x200a;" horiz-adv-x="106" />
<glyph unicode="&#x2010;" horiz-adv-x="942" d="M205 487v168h532v-168h-532z" />
<glyph unicode="&#x2011;" horiz-adv-x="942" d="M205 487v168h532v-168h-532z" />
<glyph unicode="&#x2012;" horiz-adv-x="942" d="M205 487v168h532v-168h-532z" />
<glyph unicode="&#x2013;" horiz-adv-x="1228" d="M102 547v170h1024v-170h-1024z" />
<glyph unicode="&#x2014;" horiz-adv-x="1843" d="M102 547v170h1639v-170h-1639z" />
<glyph unicode="&#x2018;" horiz-adv-x="559" d="M123 922l135 512h178l-104 -512h-209z" />
<glyph unicode="&#x2019;" horiz-adv-x="559" d="M123 922l104 512h209l-135 -512h-178z" />
<glyph unicode="&#x201a;" horiz-adv-x="559" d="M123 -274l104 512h209l-135 -512h-178z" />
<glyph unicode="&#x201c;" horiz-adv-x="1071" d="M164 922l135 512h178l-104 -512h-209zM594 922l135 512h178l-104 -512h-209z" />
<glyph unicode="&#x201d;" horiz-adv-x="1071" d="M164 922l104 512h209l-135 -512h-178zM594 922l104 512h209l-135 -512h-178z" />
<glyph unicode="&#x201e;" horiz-adv-x="1071" d="M164 -274l104 512h209l-135 -512h-178zM594 -274l104 512h209l-135 -512h-178z" />
<glyph unicode="&#x2022;" horiz-adv-x="651" d="M72 592q0 107 73 180q74 74 181 74q106 0 180 -74t74 -180t-74 -180t-180 -74q-107 0 -181 74q-73 73 -73 180z" />
<glyph unicode="&#x2026;" horiz-adv-x="1536" d="M147 0v238h215v-238h-215zM659 0v238h215v-238h-215zM1171 0v238h215v-238h-215z" />
<glyph unicode="&#x202f;" horiz-adv-x="381" />
<glyph unicode="&#x2039;" horiz-adv-x="632" d="M123 436v244l297 307l90 -180l-260 -250l260 -248l-90 -180z" />
<glyph unicode="&#x203a;" horiz-adv-x="632" d="M123 307l260 248l-260 250l90 180l297 -307v-244l-297 -307z" />
<glyph unicode="&#x205f;" horiz-adv-x="477" />
<glyph unicode="&#x20ac;" horiz-adv-x="1331" d="M20 446v152h154q-4 70 -4 82q0 8 4 86h-154v152h185q64 214 239 339q177 127 422 127q217 0 385 -104l-88 -152q-127 80 -297 80q-166 0 -284 -75t-174 -215h557v-152h-596q-4 -78 -4 -86q0 -46 4 -82h596v-152h-559q56 -141 174 -217.5t286 -76.5q183 0 320 94l102 -144 q-189 -127 -422 -127q-250 0 -424 125q-173 124 -239 346h-183z" />
<glyph unicode="&#x2122;" horiz-adv-x="2004" d="M164 1298v136h553v-136h-201v-696h-151v696h-201zM862 602v832h240l248 -639l252 639h239v-832h-151v660l-269 -660h-143l-264 658v-658h-152z" />
<glyph unicode="&#x25fc;" horiz-adv-x="1024" d="M0 0v1024h1024v-1024h-1024z" />
</font>
</defs>
</svg>
